<svg xmlns="http://www.w3.org/2000/svg" viewBox="0 0 120 120"><defs><linearGradient id="bg" x1="0" y1="0" x2="0" y2="1"><stop offset="0" stop-color="#ffffff"/><stop offset="1" stop-color="#eef1f5"/></linearGradient></defs><ellipse cx="60" cy="101" rx="32" ry="5" fill="#0b1a2e" opacity="0.12"/><rect x="12" y="12" width="96" height="96" rx="24" fill="url(#bg)" stroke="#e3e8ef" stroke-width="1.5"/><g transform="translate(28.00,28.00) scale(0.06250)"><path d="M0 512C0 229.216 229.216 0 512 0s512 229.216 512 512-229.216 512-512 512S0 794.784 0 512z" fill="#74C23D"/>
<path d="M256 246.496h544v544H256v-544z" fill="#FFFFFF"/>
<path d="M362.688 298.656h330.688c15.2 0 27.584 12.32 27.584 27.584v55.072a27.584 27.584 0 0 1-27.584 27.584H362.688a27.584 27.584 0 0 1-27.584-27.584V326.24c0-15.2 12.32-27.584 27.584-27.584z m64.256 27.584a27.584 27.584 0 1 0 0.032 55.168 27.584 27.584 0 0 0 0-55.168zM362.688 464.032h330.688c15.2 0 27.584 12.352 27.584 27.584v55.104a27.584 27.584 0 0 1-27.584 27.552H362.688a27.584 27.584 0 0 1-27.584-27.552V491.552a27.52 27.52 0 0 1 27.584-27.52z m64.256 27.52a27.584 27.584 0 1 0 0.032 55.168 27.584 27.584 0 0 0 0-55.168z m-64.256 137.824h330.688c15.2 0 27.584 12.32 27.584 27.552v55.104a27.584 27.584 0 0 1-27.584 27.584H362.688a27.584 27.584 0 0 1-27.584-27.584v-55.104a27.52 27.52 0 0 1 27.584-27.552z m64.256 27.552a27.584 27.584 0 1 0 0 55.168 27.584 27.584 0 0 0 0-55.168z" fill="#FFFFFF"/></g></svg>