<svg xmlns="http://www.w3.org/2000/svg" viewBox="0 0 120 120"><defs><linearGradient id="bg" x1="0" y1="0" x2="0" y2="1"><stop offset="0" stop-color="#ffffff"/><stop offset="1" stop-color="#eef1f5"/></linearGradient></defs><ellipse cx="60" cy="101" rx="32" ry="5" fill="#0b1a2e" opacity="0.12"/><rect x="12" y="12" width="96" height="96" rx="24" fill="url(#bg)" stroke="#e3e8ef" stroke-width="1.5"/><g transform="translate(28.00,29.60) scale(0.05937)"><path d="M557.132035 4.703554l209.528362 118.041747a36.529289 36.529289 0 0 1 18.598537 31.826373v234.549007a36.529289 36.529289 0 0 1-18.598537 31.826373l-209.528362 118.055954a36.529289 36.529289 0 0 1-35.861503 0l-209.528361-118.055954a36.529289 36.529289 0 0 1-18.598538-31.826373V154.571674a36.529289 36.529289 0 0 1 18.598538-31.826373L521.270532 4.703554a36.529289 36.529289 0 0 1 35.861503 0z m-293.143633 480.237244l209.528362 118.041746a36.529289 36.529289 0 0 1 18.598537 31.826374v234.506382a36.529289 36.529289 0 0 1-18.598537 31.76954l-209.514154 118.198037a36.529289 36.529289 0 0 1-35.875711 0L18.584329 901.08484A36.529289 36.529289 0 0 1 0 869.3153V634.752085a36.529289 36.529289 0 0 1 18.598537-31.826374l209.528362-118.041746a36.529289 36.529289 0 0 1 35.861503 0z m586.287267 0l209.528362 118.041746A36.529289 36.529289 0 0 1 1078.402568 634.752085v234.563215a36.529289 36.529289 0 0 1-18.584329 31.76954l-209.528362 118.198037a36.529289 36.529289 0 0 1-35.875711 0L604.885804 901.08484a36.529289 36.529289 0 0 1-18.584329-31.812165V634.752085a36.529289 36.529289 0 0 1 18.598537-31.826374l209.514154-118.041746a36.529289 36.529289 0 0 1 35.861503 0z m-17.930752-10.102032" fill="#0d70ff"/>
<path d="M808.603011 738.713502l-133.926516-78.145113a14.037704 14.037704 0 0 1 0.071041-24.296026l155.650858-89.511676a14.037704 14.037704 0 0 1 13.995079 0L997.415814 634.808918a14.037704 14.037704 0 0 1-1.179281 24.949603l-174.76089 79.565934a14.037704 14.037704 0 0 1-12.872632-0.610953z m-430.508535-585.889437l154.258454-88.701808a14.037704 14.037704 0 0 1 13.99508 0l154.258454 88.701808a14.037704 14.037704 0 0 1-0.610953 24.66544l-154.28687 78.898148a14.037704 14.037704 0 0 1-12.787383 0l-154.244246-78.898148a14.037704 14.037704 0 0 1-0.610952-24.66544zM234.847379 739.111332L80.588924 660.213184a14.037704 14.037704 0 0 1-0.610952-24.66544l154.258454-88.701808a14.037704 14.037704 0 0 1 13.995079 0l154.258455 88.701808a14.037704 14.037704 0 0 1-0.610953 24.66544L247.620553 739.111332a14.037704 14.037704 0 0 1-12.773174 0z m6.393691 3.267887" fill="#FFFFFF"/></g></svg>