<svg xmlns="http://www.w3.org/2000/svg" viewBox="0 0 120 120"><defs><linearGradient id="bg" x1="0" y1="0" x2="0" y2="1"><stop offset="0" stop-color="#ffffff"/><stop offset="1" stop-color="#eef1f5"/></linearGradient></defs><ellipse cx="60" cy="101" rx="32" ry="5" fill="#0b1a2e" opacity="0.12"/><rect x="12" y="12" width="96" height="96" rx="24" fill="url(#bg)" stroke="#e3e8ef" stroke-width="1.5"/><g transform="translate(28.00,28.00) scale(0.06250)"><path d="M969.833925 0H24.616287C17.634275 0 0 17.634275 0 39.382646v945.234708a39.382646 39.382646 0 0 0 39.382646 39.382646h945.234708a39.382646 39.382646 0 0 0 39.382646-39.382646V39.382646C1024 17.634275 1006.365725 0 969.833925 0zM415.301692 740.28107H141.381479v-113.231508h212.925764l46.75729-60.806668 76.477786 93.446295z m-68.283738-340.274935h-82.623322v92.302542l-161.166692-148.926832 161.217905-148.926831V286.791698h143.634842l261.577928 340.309077H882.567308v113.231508H608.698308z m412.467917 92.302542v-92.302542h-82.572109l-60.960307 79.29449c-23.131116-30.130199-50.342186-65.688956-73.831791-96.416637l73.831791-96.006935H759.656581v-92.422039l161.234975 148.926831z" fill="#1890FF"/></g></svg>