<svg xmlns="http://www.w3.org/2000/svg" viewBox="0 0 1024 1024">
  <rect width="1024" height="1024" rx="160" fill="#0F8A5F"/>
  <path d="M260 308h320c106 0 184 72 184 176 0 106-78 178-184 178H440v108H260V308zm180 138v80h116c28 0 46-16 46-40s-18-40-46-40H440z" fill="#FFFFFF"/>
  <path d="M260 584h180v186H260V584zm470-276h62v462h-62V308z" fill="#BDEAD6"/>
  <path d="M150 512c0-200 162-362 362-362 82 0 157 27 218 73l-62 62a270 270 0 0 0-156-49c-152 0-276 124-276 276s124 276 276 276c58 0 112-18 156-49l62 62a360 360 0 0 1-218 73c-200 0-362-162-362-362z" fill="#E5FFF3" opacity=".9"/>
</svg>
