<svg xmlns="http://www.w3.org/2000/svg" viewBox="0 0 120 120"><defs><linearGradient id="cy" x1="0" y1="0" x2="1" y2="0"><stop offset="0" stop-color="#1f6fd0"/><stop offset="0.5" stop-color="#4ea1ff"/><stop offset="1" stop-color="#1c5fb8"/></linearGradient><linearGradient id="ct" x1="0" y1="0" x2="0" y2="1"><stop offset="0" stop-color="#8cc5ff"/><stop offset="1" stop-color="#5aa6f7"/></linearGradient><linearGradient id="cyd" x1="0" y1="0" x2="1" y2="0"><stop offset="0" stop-color="#19589f"/><stop offset="0.5" stop-color="#3a7fd0"/><stop offset="1" stop-color="#164e8f"/></linearGradient></defs><ellipse cx="60" cy="99" rx="30" ry="5" fill="#0b1a2e" opacity="0.14"/><g><ellipse cx="38" cy="48" rx="11" ry="4.5" fill="#6fb0f5"/><path d="M27 48 V74 A11 4.5 0 0 0 49 74 V48" fill="url(#cyd)"/></g><g><ellipse cx="82" cy="48" rx="11" ry="4.5" fill="#6fb0f5"/><path d="M71 48 V74 A11 4.5 0 0 0 93 74 V48" fill="url(#cyd)"/></g><path d="M48 40 V70 A12 5 0 0 0 72 70 V40" fill="url(#cy)"/><ellipse cx="60" cy="40" rx="12" ry="5" fill="url(#ct)"/><path d="M52 43 Q49 56 53 68" stroke="#fff" stroke-width="2.2" opacity="0.25" fill="none" stroke-linecap="round"/></svg>