<svg xmlns="http://www.w3.org/2000/svg" viewBox="0 0 120 120"><defs><linearGradient id="b1" x1="0" y1="0" x2="0" y2="1"><stop offset="0" stop-color="#5a7290"/><stop offset="1" stop-color="#2f4258"/></linearGradient><linearGradient id="b2" x1="0" y1="0" x2="0" y2="1"><stop offset="0" stop-color="#6b86a8"/><stop offset="1" stop-color="#3a4f6e"/></linearGradient></defs><ellipse cx="60" cy="100" rx="32" ry="5.5" fill="#0b1a2e" opacity="0.14"/><rect x="28" y="46" width="26" height="44" rx="4" fill="url(#b1)"/><rect x="58" y="30" width="30" height="60" rx="4" fill="url(#b2)"/><rect x="28" y="46" width="26" height="4" rx="2" fill="#fff" opacity="0.14"/><rect x="58" y="30" width="30" height="4" rx="2" fill="#fff" opacity="0.16"/><g fill="#ffe08a"><rect x="35" y="54" width="5" height="5" rx="1"/><rect x="44" y="54" width="5" height="5" rx="1"/><rect x="35" y="66" width="5" height="5" rx="1"/><rect x="44" y="66" width="5" height="5" rx="1"/><rect x="65" y="40" width="6" height="6" rx="1"/><rect x="76" y="40" width="6" height="6" rx="1"/><rect x="65" y="54" width="6" height="6" rx="1"/><rect x="76" y="54" width="6" height="6" rx="1"/><rect x="65" y="68" width="6" height="6" rx="1"/><rect x="76" y="68" width="6" height="6" rx="1"/></g></svg>