<svg xmlns="http://www.w3.org/2000/svg" viewBox="0 0 120 120"><defs><linearGradient id="bg" x1="0" y1="0" x2="0" y2="1"><stop offset="0" stop-color="#005571"/><stop offset="1" stop-color="#004860"/></linearGradient></defs><ellipse cx="60" cy="101" rx="32" ry="5" fill="#0b1a2e" opacity="0.18"/><rect x="12" y="12" width="96" height="96" rx="24" fill="url(#bg)"/><g transform="translate(30,30) scale(2.5)" fill="#ffffff"><path d="M13.394 0C8.683 0 4.609 2.716 2.644 6.667h15.641a4.77 4.77 0 0 0 3.073-1.11c.446-.375.864-.785 1.247-1.243l.001-.002A11.974 11.974 0 0 0 13.394 0zM1.804 8.889a12.009 12.009 0 0 0 0 6.222h14.7a3.111 3.111 0 1 0 0-6.222zm.84 8.444C4.61 21.283 8.684 24 13.395 24c3.701 0 7.011-1.677 9.212-4.312l-.001-.002a9.958 9.958 0 0 0-1.247-1.243 4.77 4.77 0 0 0-3.073-1.11z"/></g></svg>