<svg xmlns="http://www.w3.org/2000/svg" viewBox="0 0 120 120"><defs><linearGradient id="k" x1="0" y1="0" x2="0" y2="1"><stop offset="0" stop-color="#4f86f0"/><stop offset="1" stop-color="#2657c8"/></linearGradient></defs><ellipse cx="60" cy="100" rx="29" ry="5" fill="#0b1a2e" opacity="0.14"/><path d="M34 44 a6 6 0 0 1 6 -6 H52 l6 8 H80 a6 6 0 0 1 6 6 V80 a6 6 0 0 1 -6 6 H40 a6 6 0 0 1 -6 -6 Z" fill="url(#k)"/><path d="M34 48 a6 6 0 0 1 6 -6 H52 l6 8 H80 a6 6 0 0 1 6 6 H34 Z" fill="#fff" opacity="0.13"/><g fill="#fff" opacity="0.9"><circle cx="50" cy="63" r="5"/><circle cx="70" cy="63" r="5"/><circle cx="50" cy="77" r="5"/><circle cx="70" cy="77" r="5"/></g></svg>