<svg xmlns="http://www.w3.org/2000/svg" viewBox="0 0 120 120"><defs><linearGradient id="bg" x1="0" y1="0" x2="0" y2="1"><stop offset="0" stop-color="#ffffff"/><stop offset="1" stop-color="#eef1f5"/></linearGradient></defs><ellipse cx="60" cy="101" rx="32" ry="5" fill="#0b1a2e" opacity="0.12"/><rect x="12" y="12" width="96" height="96" rx="24" fill="url(#bg)" stroke="#e3e8ef" stroke-width="1.5"/><g transform="translate(28.00,28.00) scale(0.06250)"><path d="M827.93633 570.508947a125.429339 125.429339 0 0 0-112.630426 69.728473l-257.923676-69.318908a189.935855 189.935855 0 0 0 7.372173-114.985426l251.063459-67.0663a124.303034 124.303034 0 1 0-13.310868-56.315213c0 2.559782 0.614348 4.914782 0.716739 7.372173l-255.978242 68.602169a199.970203 199.970203 0 0 0-152.563032-105.770209V198.1118a100.650645 100.650645 0 1 0-50.274127 0v104.643906a200.277376 200.277376 0 0 0 0 397.687796v123.893469a100.650645 100.650645 0 1 0 50.274127 0v-123.893469a200.174985 200.174985 0 0 0 139.76412-83.858472l268.981937 71.673908c0 2.457391-0.716739 4.914782-0.716739 7.269782a125.838904 125.838904 0 1 0 125.224555-125.019773z" fill="#1890FF"/></g></svg>