<svg xmlns="http://www.w3.org/2000/svg" viewBox="0 0 120 120"><defs><linearGradient id="m" x1="0" y1="0" x2="0" y2="1"><stop offset="0" stop-color="#5aa6f7"/><stop offset="1" stop-color="#2f5fb8"/></linearGradient></defs><ellipse cx="60" cy="100" rx="28" ry="5" fill="#0b1a2e" opacity="0.14"/><path d="M40 54 a8 8 0 0 1 0 -16 V32 a4 4 0 0 1 4 -4 h16 a8 8 0 0 1 16 0 h4 a4 4 0 0 1 4 4 v16 a8 8 0 0 1 0 16 v18 a4 4 0 0 1 -4 4 H44 a4 4 0 0 1 -4 -4 Z" fill="url(#m)"/><ellipse cx="55" cy="44" rx="16" ry="8" fill="#fff" opacity="0.14"/></svg>