<svg xmlns="http://www.w3.org/2000/svg" viewBox="0 0 120 120"><defs><linearGradient id="bg" x1="0" y1="0" x2="0" y2="1"><stop offset="0" stop-color="#ffffff"/><stop offset="1" stop-color="#eef1f5"/></linearGradient></defs><ellipse cx="60" cy="101" rx="32" ry="5" fill="#0b1a2e" opacity="0.12"/><rect x="12" y="12" width="96" height="96" rx="24" fill="url(#bg)" stroke="#e3e8ef" stroke-width="1.5"/><g transform="translate(28.00,28.00) scale(0.06250)"><path d="M498.054095 386.876952c0-92.647619 0-282.819048-4.87619-365.714285l-4.876191 4.87619c-34.133333 24.380952-199.92381 156.038095-214.552381 424.228572-9.752381 209.67619 136.533333 351.085714 195.047619 399.847619 14.628571-63.390476 34.133333-219.428571 29.257143-380.342858v-82.895238z" fill="#5AAF4F"/>
<path d="M517.558857 854.991238c-4.87619 14.628571-4.87619 24.380952-9.752381 34.133333l-4.87619 9.752381c9.752381 39.009524 9.752381 87.771429 9.752381 87.771429l29.257143 9.752381s-4.87619-73.142857 0-107.276191v-4.87619c-9.752381-9.752381-19.504762-19.504762-24.380953-29.257143z" fill="#B8B79C"/>
<path d="M741.863619 382.000762c-53.638095-238.933333-185.295238-312.07619-199.923809-346.209524 4.87619 58.514286 4.87619 165.790476 4.87619 351.085714v82.895238c4.87619 107.27619-4.87619 199.92381-9.752381 258.438096 0 58.514286 24.380952 112.152381 34.133333 117.028571 4.87619-4.87619 9.752381-9.752381 19.504762-14.628571 68.266667-58.514286 195.047619-204.8 151.161905-448.609524z" fill="#439744"/></g></svg>