<svg xmlns="http://www.w3.org/2000/svg" viewBox="0 0 120 120"><defs><linearGradient id="bg" x1="0" y1="0" x2="0" y2="1"><stop offset="0" stop-color="#009639"/><stop offset="1" stop-color="#008030"/></linearGradient></defs><ellipse cx="60" cy="101" rx="32" ry="5" fill="#0b1a2e" opacity="0.18"/><rect x="12" y="12" width="96" height="96" rx="24" fill="url(#bg)"/><g transform="translate(30,30) scale(2.5)" fill="#ffffff"><path d="M12 0L1.605 6v12L12 24l10.395-6V6L12 0zm6 16.59c0 .705-.646 1.29-1.529 1.29-.631 0-1.351-.255-1.801-.81l-6-7.141v6.66c0 .721-.57 1.29-1.274 1.29H7.32c-.721 0-1.29-.6-1.29-1.29V7.41c0-.705.63-1.29 1.5-1.29.646 0 1.38.255 1.83.81l5.97 7.141V7.41c0-.721.6-1.29 1.29-1.29h.075c.72 0 1.29.6 1.29 1.29v9.18H18z"/></g></svg>