<svg xmlns="http://www.w3.org/2000/svg" viewBox="0 0 120 120"><defs><linearGradient id="bg" x1="0" y1="0" x2="0" y2="1"><stop offset="0" stop-color="#ffffff"/><stop offset="1" stop-color="#eef1f5"/></linearGradient></defs><ellipse cx="60" cy="101" rx="32" ry="5" fill="#0b1a2e" opacity="0.12"/><rect x="12" y="12" width="96" height="96" rx="24" fill="url(#bg)" stroke="#e3e8ef" stroke-width="1.5"/><g transform="translate(28.00,28.00) scale(0.06250)"><path d="M550.580495 9.108838l4.550153 2.502584 368.562397 212.719655c26.732149 15.47052 43.226454 44.022731 43.226454 74.906895v425.609941a86.452908 86.452908 0 0 1-43.226454 74.850017l-368.562397 212.776532a86.452908 86.452908 0 0 1-86.452908 0L100.115343 799.69793A86.452908 86.452908 0 0 1 56.888889 724.847913V299.181095c0-30.884164 16.494305-59.436374 43.226454-74.850018L468.67774 11.611422A86.452908 86.452908 0 0 1 550.580495 9.108838zM483.465737 102.955744L178.832991 278.705406a22.750765 22.750765 0 0 0 0.682523 39.813839L485.172045 481.244094a56.876913 56.876913 0 0 0 53.464298 0L844.292874 318.519245a22.750765 22.750765 0 0 0 0.682523-39.813839L540.342651 102.955744a56.876913 56.876913 0 0 0-56.876914 0z" fill="#0d70ff"/></g></svg>