<svg xmlns="http://www.w3.org/2000/svg" viewBox="0 0 120 120"><defs><linearGradient id="bg" x1="0" y1="0" x2="0" y2="1"><stop offset="0" stop-color="#d05000"/><stop offset="1" stop-color="#b14400"/></linearGradient></defs><ellipse cx="60" cy="101" rx="32" ry="5" fill="#0b1a2e" opacity="0.18"/><rect x="12" y="12" width="96" height="96" rx="24" fill="url(#bg)"/><g transform="translate(30,30) scale(2.5)" fill="#ffffff"><path d="M23.035 9.601h-7.677a.956.956 0 01-.962-.962V.962a.956.956 0 00-.962-.956H10.56a.956.956 0 00-.962.956V8.64a.956.956 0 01-.962.962H5.762a.956.956 0 01-.961-.962V.962A.956.956 0 003.839 0H.959a.956.956 0 00-.956.962v22.076A.956.956 0 00.965 24h22.07a.956.956 0 00.962-.962V10.58a.956.956 0 00-.962-.98zm-3.86 8.152a1.437 1.437 0 01-1.437 1.443h-1.924a1.437 1.437 0 01-1.436-1.443v-1.917a1.437 1.437 0 011.436-1.443h1.924a1.437 1.437 0 011.437 1.443z"/></g></svg>