<svg xmlns="http://www.w3.org/2000/svg" viewBox="0 0 120 120"><defs><linearGradient id="bg" x1="0" y1="0" x2="0" y2="1"><stop offset="0" stop-color="#ffffff"/><stop offset="1" stop-color="#eef1f5"/></linearGradient></defs><ellipse cx="60" cy="101" rx="32" ry="5" fill="#0b1a2e" opacity="0.12"/><rect x="12" y="12" width="96" height="96" rx="24" fill="url(#bg)" stroke="#e3e8ef" stroke-width="1.5"/><g transform="translate(28.00,28.00) scale(0.06250)"><path d="M947.1864 415.507015h-302.486547c-24.191244-2.911909-42.622668-24.191244-42.622668-49.27846v-317.43008A48.766476 48.766476 0 0 0 553.310709 0h-105.852692c-27.103153 0-48.862473 21.983313-48.862473 48.862473v320.757976c-1.311959 24.191244-21.279335 43.678635-45.278585 45.918565H274.087435a49.438455 49.438455 0 0 1-42.846661-45.950564V48.862473C231.240774 21.75932 209.257461 0 182.442299 0H76.557608C49.518453 0 27.759133 21.983313 27.759133 48.862473v926.275054c0 27.103153 21.983313 48.862473 48.798475 48.862473h870.852785c27.103153 0 48.798475-21.983313 48.798475-48.862473V464.401487a48.95847 48.95847 0 0 0-49.022468-48.862473z m-139.355645 350.293054c0 27.103153-21.983313 48.862473-48.798475 48.862473h-105.852692a48.798475 48.798475 0 0 1-48.798475-48.862473v-99.868879c0-27.103153 21.983313-48.862473 48.798475-48.862473h105.852692c27.103153 0 48.798475 21.983313 48.798475 48.862473z" fill="#FF6600"/></g></svg>