<svg xmlns="http://www.w3.org/2000/svg" viewBox="0 0 120 120"><defs><linearGradient id="cy" x1="0" y1="0" x2="1" y2="0"><stop offset="0" stop-color="#1f6fd0"/><stop offset="0.5" stop-color="#4ea1ff"/><stop offset="1" stop-color="#1c5fb8"/></linearGradient><linearGradient id="ct" x1="0" y1="0" x2="0" y2="1"><stop offset="0" stop-color="#8cc5ff"/><stop offset="1" stop-color="#5aa6f7"/></linearGradient></defs><ellipse cx="60" cy="100" rx="28" ry="5" fill="#0b1a2e" opacity="0.14"/><g fill="url(#cy)"><path d="M34 38 V50 A26 8 0 0 0 86 50 V38"/><path d="M34 54 V66 A26 8 0 0 0 86 66 V54"/><path d="M34 70 V82 A26 8 0 0 0 86 82 V70"/></g><ellipse cx="60" cy="38" rx="26" ry="8" fill="url(#ct)"/><g fill="#39e0a0"><circle cx="74" cy="46" r="2.4"/><circle cx="74" cy="62" r="2.4"/><circle cx="74" cy="78" r="2.4"/></g><path d="M42 41 Q39 45 41 49" stroke="#fff" stroke-width="2.5" opacity="0.3" fill="none" stroke-linecap="round"/></svg>