<svg xmlns="http://www.w3.org/2000/svg" viewBox="0 0 120 120"><defs><linearGradient id="s" x1="0" y1="0" x2="0" y2="1"><stop offset="0" stop-color="#5a9bf5"/><stop offset="1" stop-color="#2456b8"/></linearGradient></defs><ellipse cx="60" cy="99" rx="26" ry="5" fill="#0b1a2e" opacity="0.14"/><path d="M60 24 L86 36 V60 c0 19 -15 30 -26 34 c-11 -4 -26 -15 -26 -34 V36 Z" fill="url(#s)"/><path d="M60 24 L86 36 V58 c0 4 -1 8 -2 11 H36 c-1 -3 -2 -7 -2 -11 V36 Z" fill="#fff" opacity="0.12"/><rect x="51" y="56" width="18" height="15" rx="3" fill="#fff"/><path d="M54 56 V51 a6 6 0 0 1 12 0 V56" fill="none" stroke="#fff" stroke-width="3.5"/><circle cx="60" cy="62" r="2.2" fill="#2456b8"/><rect x="59" y="63" width="2" height="5" rx="1" fill="#2456b8"/></svg>