<svg xmlns="http://www.w3.org/2000/svg" viewBox="0 0 120 120"><defs><linearGradient id="bg" x1="0" y1="0" x2="0" y2="1"><stop offset="0" stop-color="#ffffff"/><stop offset="1" stop-color="#eef1f5"/></linearGradient></defs><ellipse cx="60" cy="101" rx="32" ry="5" fill="#0b1a2e" opacity="0.12"/><rect x="12" y="12" width="96" height="96" rx="24" fill="url(#bg)" stroke="#e3e8ef" stroke-width="1.5"/><g transform="translate(28.00,35.10) scale(0.04863)"><path d="M666.624 190.1568a795.9552 795.9552 0 0 0 20.48 157.5424s103.9616 273.2544 302.6944 344.4224a564.5056 564.5056 0 0 0 146.432-171.008l9.8048-17.92q6.4256-12.3392 12.2624-25.1136l7.9104-17.92a682.9056 682.9056 0 0 0 51.712-279.04h0.2816c0-28.16-8.192-147.3792-22.8864-179.968-39.7056 16.7424-112.4096 70.5536-128.7424 125.5936a729.6 729.6 0 0 0-244.6848 3.3024c-13.0816-59.2128-78.1568-104.6784-127.1296-130.0736-20.7104 38.4-29.952 127.3856-27.4944 190.464-0.2816-0.5888-0.5376-0.2816-0.5376-0.2816z m0 0" fill="#088AFF"/></g></svg>